<?xml version="1.0" encoding="UTF-8"?>
<svg width="40px" height="40px" viewBox="0 0 40 40" version="1.1" xmlns="http://www.w3.org/2000/svg" xmlns:xlink="http://www.w3.org/1999/xlink">
    <!-- Generator: sketchtool 63.1 (101010) - https://sketch.com -->
    <title>3D556E46-1E4B-4B1C-92B5-894ADA808C10@1.5x</title>
    <desc>Created with sketchtool.</desc>
    <g id="Page-1" stroke="none" stroke-width="1" fill="none" fill-rule="evenodd">
        <g id="2-District-E" transform="translate(-961.000000, -44.000000)" fill="#FFFFFF" fill-rule="nonzero">
            <g id="error-(1)" transform="translate(961.000000, 44.000000)">
                <path d="M20,0 C8.9459375,0 0,8.94507813 0,20 C0,31.0541406 8.94507813,40 20,40 C31.0540625,40 40,31.0549219 40,20 C40,8.94585938 31.0549219,0 20,0 Z M20,36.875 C10.673125,36.875 3.125,29.3275781 3.125,20 C3.125,10.6730469 10.6724219,3.125 20,3.125 C29.326875,3.125 36.875,10.6724219 36.875,20 C36.875,29.3269531 29.3275781,36.875 20,36.875 Z" id="Shape"></path>
                <path d="M26.8426562,24.6329687 L22.2096875,20 L26.8426562,15.3670312 C27.4528125,14.756875 27.4528906,13.7675781 26.8427344,13.1573437 C26.2324219,12.5471094 25.243125,12.5471875 24.6330469,13.1573437 L20,17.7903125 L15.3669531,13.1573437 C14.756875,12.5471094 13.7674219,12.5471094 13.1572656,13.1573437 C12.5471094,13.7675781 12.5471094,14.756875 13.1573438,15.3670312 L17.7903125,20 L13.1573438,24.6329687 C12.5471094,25.2432031 12.5470312,26.2325 13.1572656,26.8426562 C13.7676562,27.4529687 14.7569531,27.4527344 15.3669531,26.8426562 L20,22.2096875 L24.6330469,26.8426562 C25.2430469,27.4528125 26.2325,27.4528906 26.8427344,26.8426562 C27.4529687,26.2324219 27.4528906,25.243125 26.8426562,24.6329687 Z" id="Path"></path>
            </g>
        </g>
    </g>
</svg>