<?xml version="1.0" encoding="UTF-8"?>
<svg width="40px" height="40px" viewBox="0 0 40 40" version="1.1" xmlns="http://www.w3.org/2000/svg" xmlns:xlink="http://www.w3.org/1999/xlink">
    <!-- Generator: sketchtool 63.1 (101010) - https://sketch.com -->
    <title>5027E736-4840-4B8D-B672-761F2D9DDA76@1.5x</title>
    <desc>Created with sketchtool.</desc>
    <g id="Page-1" stroke="none" stroke-width="1" fill="none" fill-rule="evenodd">
        <g id="2-District-D" transform="translate(-1092.000000, -342.000000)">
            <g id="Group-15" transform="translate(50.000000, 198.000000)">
                <g id="Group-13" transform="translate(1042.000000, 113.000000)">
                    <g id="Group-9" transform="translate(0.000000, 31.000000)">
                        <g id="Group-4">
                            <rect id="Rectangle" stroke="#697388" fill="#FFFFFF" x="0.5" y="0.5" width="39" height="39" rx="10"></rect>
                            <g id="pen" transform="translate(10.000000, 10.000000)" fill="#69738A" fill-rule="nonzero">
                                <path d="M17.6548764,0.845467033 C16.5825893,-0.224931341 14.8461538,-0.224931341 13.7738668,0.845467033 L12.8023695,1.82228708 L2.46085165,12.1583104 L2.43887363,12.1804602 C2.43355081,12.1857829 2.43355081,12.1914492 2.42788462,12.1914492 C2.4168956,12.2079327 2.40041209,12.2242445 2.38959477,12.240728 C2.38959477,12.2462225 2.38392857,12.2462225 2.38392857,12.251717 C2.37293956,12.2682005 2.36761675,12.2791895 2.35645604,12.2956731 C2.35113323,12.3011676 2.35113323,12.3064904 2.34563873,12.3121566 C2.34014422,12.3286401 2.33464971,12.3396291 2.32898352,12.3561126 C2.32898352,12.3614354 2.3236607,12.3614354 2.3236607,12.3671016 L0.0291895385,19.2668269 C-0.0381181538,19.4632555 0.0130494505,19.6808036 0.160885978,19.8265797 C0.264766505,19.9290865 0.404876396,19.9864354 0.550652484,19.9859238 C0.610233495,19.9848901 0.669299429,19.9756181 0.726304967,19.9584478 L7.62070743,17.6584822 C7.62603024,17.6584822 7.62603024,17.6584822 7.63169644,17.6531593 C7.64903846,17.6480083 7.66569367,17.640625 7.6809753,17.6310096 C7.68526787,17.6304945 7.68904532,17.6286058 7.692136,17.6256868 C7.70844782,17.6146978 7.73042585,17.6035371 7.74690936,17.5925481 C7.76322114,17.5817308 7.7798764,17.5652473 7.79635991,17.5542582 C7.80185442,17.548592 7.80717719,17.548592 7.80717719,17.5432692 C7.81284343,17.5377747 7.82383244,17.5324519 7.82932695,17.5212912 L19.142342,6.20827609 C20.2127404,5.13598901 20.2127404,3.39955358 19.142342,2.3274382 L17.6548764,0.845467033 Z M7.44505495,16.3684753 L3.62465662,12.5482486 L13.1866415,2.98626374 L17.0070398,6.80649037 L7.44505495,16.3684753 Z M3.08653846,13.5637019 L6.42410716,16.9010989 L1.4124313,18.5697116 L3.08653846,13.5637019 Z M18.3684753,5.43973213 L17.7865728,6.02712914 L13.9660027,2.20655908 L14.5535714,1.6193338 C15.1962569,0.977163473 16.2379807,0.977163473 16.8808379,1.6193338 L18.3737981,3.11229398 C19.0116758,3.75789837 19.009272,4.79721842 18.3684753,5.43973213 Z" id="Shape"></path>
                            </g>
                        </g>
                    </g>
                </g>
            </g>
        </g>
    </g>
</svg>